<svg xmlns="http://www.w3.org/2000/svg" viewBox="0 0 25 25"><defs><style>.cls-1{fill:#135aa5;}</style></defs><g id="레이어_2" data-name="레이어 2"><path class="cls-1" d="M21.74,7.22V4.35a1.11,1.11,0,0,0-1.09-1.09h0a1.12,1.12,0,0,0-1.09,1.09V5.68L13.68,1A1.92,1.92,0,0,0,12.49.54h0A1.94,1.94,0,0,0,11.32,1L.4,9.56A1,1,0,0,0,.24,11h0a1.13,1.13,0,0,0,1.55.14L12.5,2.73l10.7,8.44A1.14,1.14,0,0,0,24.76,11h0a1,1,0,0,0-.15-1.46Z"/><path class="cls-1" d="M21.74,12,12.5,4.35,3.26,12v9.78a1.09,1.09,0,0,0,1.09,1.09H9.78V13.7a2.8,2.8,0,0,1,2.45-2.82,2.73,2.73,0,0,1,3,2.71v7.06l6.52-6.52Z"/><path class="cls-1" d="M24.23,14.36h0a.92.92,0,0,1-.09,1.29l-.68.68-1.21-1.2.69-.69A.91.91,0,0,1,24.23,14.36Z"/><polygon class="cls-1" points="13.59 25 15.63 24.16 23.11 16.68 21.91 15.47 14.42 22.96 13.59 25"/></g></svg>