<?xml version="1.0" encoding="UTF-8"?><svg id="_이어_2" xmlns="http://www.w3.org/2000/svg" viewBox="0 0 1194 48"><defs><style>.cls-1{fill:#f3f3f3;}.cls-2{fill:#dcdcdc;}</style></defs><path class="cls-1" d="M1194,48H0L55.89,3.29c2.66-2.13,5.96-3.29,9.37-3.29H1128.74c3.41,0,6.71,1.16,9.37,3.29l55.89,44.71Z"/><path class="cls-2" d="M1128.74,0h-5C1123.19,0,1122.74,.45,1122.74,1s.45,1,1,1h5c.13,0,.26-.03,.38-.07,.11,.05,.24,.09,.37,.1,1.45,.08,2.86,.41,4.2,.96,.12,.05,.25,.08,.38,.08,.39,0,.77-.23,.92-.62,.21-.51-.03-1.09-.53-1.3-.45-.18-.9-.35-1.37-.49h0c-.1-.03-.2-.06-.3-.09h-.04l-.02-.02h-.04l-.02-.02h-.04l-.03-.02h-.05l-.02-.02h-.05l-.03-.02h-.05l-.03-.02h-.05l-.03-.02h-.05l-.03-.02h-.05l-.03-.02h-.05l-.02-.02h-.05l-.03-.02h-.05l-.03-.02h-.05l-.03-.02h-.05l-.02-.02h-.05l-.02-.02h-.05l-.02-.02h-.05l-.02-.02h-.08l-.02-.02h-.08l-.02-.02h-.08v-.02h-.09l-.02-.02h-.08l-.02-.02h-.08l-.02-.02h-.09l-.02-.02h-.09l-.02-.02h-.09l-.03-.02h-.12v-.02h-.13l-.03-.02h-.13l-.03-.02h-.16c-.14-.03-.29-.04-.43-.05-.02,0-.04,0-.06,0-.13,0-.26,.03-.38,.07C1129.04,.04,1128.89,0,1128.74,0h0ZM1113.74,0h-5C1108.19,0,1107.74,.45,1107.74,1s.45,1,1,1h5c.55,0,1-.45,1-1S1114.29,0,1113.74,0h0ZM1098.74,0h-5C1093.19,0,1092.74,.45,1092.74,1s.45,1,1,1h5c.55,0,1-.45,1-1S1099.29,0,1098.74,0h0ZM1083.74,0h-5C1078.19,0,1077.74,.45,1077.74,1s.45,1,1,1h5c.55,0,1-.45,1-1S1084.29,0,1083.74,0h0ZM1068.74,0h-5C1063.19,0,1062.74,.45,1062.74,1s.45,1,1,1h5c.55,0,1-.45,1-1S1069.29,0,1068.74,0h0ZM1053.74,0h-5C1048.19,0,1047.74,.45,1047.74,1s.45,1,1,1h5c.55,0,1-.45,1-1S1054.29,0,1053.74,0h0ZM1038.74,0h-5C1033.19,0,1032.74,.45,1032.74,1s.45,1,1,1h5c.55,0,1-.45,1-1S1039.29,0,1038.74,0h0ZM1023.74,0h-5C1018.19,0,1017.74,.45,1017.74,1s.45,1,1,1h5c.55,0,1-.45,1-1S1024.29,0,1023.74,0h0ZM1008.74,0h-5C1003.19,0,1002.74,.45,1002.74,1s.45,1,1,1h5c.55,0,1-.45,1-1S1009.29,0,1008.74,0h0ZM993.74,0h-5C988.19,0,987.74,.45,987.74,1s.45,1,1,1h5c.55,0,1-.45,1-1S994.29,0,993.74,0h0ZM978.74,0h-5C973.19,0,972.74,.45,972.74,1s.45,1,1,1h5c.55,0,1-.45,1-1S979.29,0,978.74,0h0ZM963.74,0h-5C958.19,0,957.74,.45,957.74,1s.45,1,1,1h5c.55,0,1-.45,1-1S964.29,0,963.74,0h0ZM948.74,0h-5C943.19,0,942.74,.45,942.74,1s.45,1,1,1h5c.55,0,1-.45,1-1S949.29,0,948.74,0h0ZM933.74,0h-5C928.19,0,927.74,.45,927.74,1s.45,1,1,1h5c.55,0,1-.45,1-1S934.29,0,933.74,0h0ZM918.74,0h-5C913.19,0,912.74,.45,912.74,1s.45,1,1,1h5c.55,0,1-.45,1-1S919.29,0,918.74,0h0ZM903.74,0h-5C898.19,0,897.74,.45,897.74,1s.45,1,1,1h5c.55,0,1-.45,1-1S904.29,0,903.74,0h0ZM888.74,0h-5C883.19,0,882.74,.45,882.74,1s.45,1,1,1h5c.55,0,1-.45,1-1S889.29,0,888.74,0h0ZM873.74,0h-5C868.19,0,867.74,.45,867.74,1s.45,1,1,1h5c.55,0,1-.45,1-1S874.29,0,873.74,0h0ZM858.74,0h-5C853.19,0,852.74,.45,852.74,1s.45,1,1,1h5c.55,0,1-.45,1-1S859.29,0,858.74,0h0ZM843.74,0h-5C838.19,0,837.74,.45,837.74,1s.45,1,1,1h5c.55,0,1-.45,1-1S844.29,0,843.74,0h0ZM828.74,0h-5C823.19,0,822.74,.45,822.74,1s.45,1,1,1h5c.55,0,1-.45,1-1S829.29,0,828.74,0h0ZM813.74,0h-5C808.19,0,807.74,.45,807.74,1s.45,1,1,1h5c.55,0,1-.45,1-1S814.29,0,813.74,0h0ZM798.74,0h-5C793.19,0,792.74,.45,792.74,1s.45,1,1,1h5c.55,0,1-.45,1-1S799.29,0,798.74,0h0ZM783.74,0h-5C778.19,0,777.74,.45,777.74,1s.45,1,1,1h5c.55,0,1-.45,1-1S784.29,0,783.74,0h0ZM768.74,0h-5C763.19,0,762.74,.45,762.74,1s.45,1,1,1h5c.55,0,1-.45,1-1S769.29,0,768.74,0h0ZM753.74,0h-5C748.19,0,747.74,.45,747.74,1s.45,1,1,1h5c.55,0,1-.45,1-1S754.29,0,753.74,0h0ZM738.74,0h-5C733.19,0,732.74,.45,732.74,1s.45,1,1,1h5c.55,0,1-.45,1-1S739.29,0,738.74,0h0ZM723.74,0h-5C718.19,0,717.74,.45,717.74,1s.45,1,1,1h5c.55,0,1-.45,1-1S724.29,0,723.74,0h0ZM708.74,0h-5C703.19,0,702.74,.45,702.74,1s.45,1,1,1h5c.55,0,1-.45,1-1S709.29,0,708.74,0h0ZM693.74,0h-5C688.19,0,687.74,.45,687.74,1s.45,1,1,1h5c.55,0,1-.45,1-1S694.29,0,693.74,0h0ZM678.74,0h-5C673.19,0,672.74,.45,672.74,1s.45,1,1,1h5c.55,0,1-.45,1-1S679.29,0,678.74,0h0ZM663.74,0h-5C658.19,0,657.74,.45,657.74,1s.45,1,1,1h5c.55,0,1-.45,1-1S664.29,0,663.74,0h0ZM648.74,0h-5C643.19,0,642.74,.45,642.74,1s.45,1,1,1h5c.55,0,1-.45,1-1S649.29,0,648.74,0h0ZM633.74,0h-5C628.19,0,627.74,.45,627.74,1s.45,1,1,1h5c.55,0,1-.45,1-1S634.29,0,633.74,0h0ZM618.74,0h-5C613.19,0,612.74,.45,612.74,1s.45,1,1,1h5c.55,0,1-.45,1-1S619.29,0,618.74,0h0ZM603.74,0h-5C598.19,0,597.74,.45,597.74,1s.45,1,1,1h5c.55,0,1-.45,1-1S604.29,0,603.74,0h0ZM588.74,0h-5C583.19,0,582.74,.45,582.74,1s.45,1,1,1h5c.55,0,1-.45,1-1S589.29,0,588.74,0h0ZM573.74,0h-5C568.19,0,567.74,.45,567.74,1s.45,1,1,1h5c.55,0,1-.45,1-1S574.29,0,573.74,0h0ZM558.74,0h-5C553.19,0,552.74,.45,552.74,1s.45,1,1,1h5c.55,0,1-.45,1-1S559.29,0,558.74,0h0ZM543.74,0h-5C538.19,0,537.74,.45,537.74,1s.45,1,1,1h5c.55,0,1-.45,1-1S544.29,0,543.74,0h0ZM528.74,0h-5C523.19,0,522.74,.45,522.74,1s.45,1,1,1h5c.55,0,1-.45,1-1S529.29,0,528.74,0h0ZM513.74,0h-5C508.19,0,507.74,.45,507.74,1s.45,1,1,1h5c.55,0,1-.45,1-1S514.29,0,513.74,0h0ZM498.74,0h-5C493.19,0,492.74,.45,492.74,1s.45,1,1,1h5c.55,0,1-.45,1-1S499.29,0,498.74,0h0ZM483.74,0h-5C478.19,0,477.74,.45,477.74,1s.45,1,1,1h5c.55,0,1-.45,1-1S484.29,0,483.74,0h0ZM468.74,0h-5C463.19,0,462.74,.45,462.74,1s.45,1,1,1h5c.55,0,1-.45,1-1S469.29,0,468.74,0h0ZM453.74,0h-5C448.19,0,447.74,.45,447.74,1s.45,1,1,1h5c.55,0,1-.45,1-1S454.29,0,453.74,0h0ZM438.74,0h-5C433.19,0,432.74,.45,432.74,1s.45,1,1,1h5c.55,0,1-.45,1-1S439.29,0,438.74,0h0ZM423.74,0h-5C418.19,0,417.74,.45,417.74,1s.45,1,1,1h5c.55,0,1-.45,1-1S424.29,0,423.74,0h0ZM408.74,0h-5C403.19,0,402.74,.45,402.74,1s.45,1,1,1h5c.55,0,1-.45,1-1S409.29,0,408.74,0h0ZM393.74,0h-5C388.19,0,387.74,.45,387.74,1s.45,1,1,1h5c.55,0,1-.45,1-1S394.29,0,393.74,0h0ZM378.74,0h-5C373.19,0,372.74,.45,372.74,1s.45,1,1,1h5c.55,0,1-.45,1-1S379.29,0,378.74,0h0ZM363.74,0h-5C358.19,0,357.74,.45,357.74,1s.45,1,1,1h5c.55,0,1-.45,1-1S364.29,0,363.74,0h0ZM348.74,0h-5C343.19,0,342.74,.45,342.74,1s.45,1,1,1h5c.55,0,1-.45,1-1S349.29,0,348.74,0h0ZM333.74,0h-5C328.19,0,327.74,.45,327.74,1s.45,1,1,1h5c.55,0,1-.45,1-1S334.29,0,333.74,0h0ZM318.74,0h-5C313.19,0,312.74,.45,312.74,1s.45,1,1,1h5c.55,0,1-.45,1-1S319.29,0,318.74,0h0ZM303.74,0h-5C298.19,0,297.74,.45,297.74,1s.45,1,1,1h5c.55,0,1-.45,1-1S304.29,0,303.74,0h0ZM288.74,0h-5C283.19,0,282.74,.45,282.74,1s.45,1,1,1h5c.55,0,1-.45,1-1S289.29,0,288.74,0h0ZM273.74,0h-5C268.19,0,267.74,.45,267.74,1s.45,1,1,1h5c.55,0,1-.45,1-1S274.29,0,273.74,0h0ZM258.74,0h-5C253.19,0,252.74,.45,252.74,1s.45,1,1,1h5c.55,0,1-.45,1-1S259.29,0,258.74,0h0ZM243.74,0h-5C238.19,0,237.74,.45,237.74,1s.45,1,1,1h5c.55,0,1-.45,1-1S244.29,0,243.74,0h0ZM228.74,0h-5C223.19,0,222.74,.45,222.74,1s.45,1,1,1h5c.55,0,1-.45,1-1S229.29,0,228.74,0h0ZM213.74,0h-5C208.19,0,207.74,.45,207.74,1s.45,1,1,1h5c.55,0,1-.45,1-1S214.29,0,213.74,0h0ZM198.74,0h-5C193.19,0,192.74,.45,192.74,1s.45,1,1,1h5c.55,0,1-.45,1-1S199.29,0,198.74,0h0ZM183.74,0h-5C178.19,0,177.74,.45,177.74,1s.45,1,1,1h5c.55,0,1-.45,1-1S184.29,0,183.74,0h0ZM168.74,0h-5C163.19,0,162.74,.45,162.74,1s.45,1,1,1h5c.55,0,1-.45,1-1S169.29,0,168.74,0h0ZM153.74,0h-5C148.19,0,147.74,.45,147.74,1s.45,1,1,1h5c.55,0,1-.45,1-1S154.29,0,153.74,0h0ZM138.74,0h-5C133.19,0,132.74,.45,132.74,1s.45,1,1,1h5c.55,0,1-.45,1-1S139.29,0,138.74,0h0ZM123.74,0h-5C118.19,0,117.74,.45,117.74,1s.45,1,1,1h5c.55,0,1-.45,1-1S124.29,0,123.74,0h0ZM108.74,0h-5C103.19,0,102.74,.45,102.74,1s.45,1,1,1h5c.55,0,1-.45,1-1S109.29,0,108.74,0h0ZM93.74,0h-5C88.19,0,87.74,.45,87.74,1s.45,1,1,1h5c.55,0,1-.45,1-1S94.29,0,93.74,0h0ZM78.74,0h-5C73.19,0,72.74,.45,72.74,1s.45,1,1,1h5c.55,0,1-.45,1-1S79.29,0,78.74,0h0Zm-14.89,.07s-.06,0-.09,0c-1.67,.17-3.3,.62-4.81,1.32-.5,.23-.71,.83-.48,1.33,.17,.36,.53,.58,.91,.58,.14,0,.28-.03,.42-.09,1.32-.61,2.72-1,4.16-1.14,.55-.06,.95-.55,.89-1.1-.05-.52-.49-.9-.99-.9h0Zm-12.33,7c-.22,0-.44,.07-.62,.22,0,0-1.45,1.16-2.58,2.06h0v.02l-.05,.03h0l-1.27,1.02c-.43,.35-.5,.97-.15,1.4,.2,.25,.49,.38,.78,.38,.22,0,.44-.07,.62-.22l3.9-3.12c.43-.34,.5-.97,.16-1.41-.2-.25-.49-.38-.78-.38h0Zm-11.71,9.37c-.22,0-.44,.07-.62,.22l-3.9,3.12c-.43,.34-.5,.97-.16,1.41,.2,.25,.49,.38,.78,.38,.22,0,.44-.07,.62-.22l3.9-3.12c.43-.34,.5-.97,.16-1.41-.2-.25-.49-.38-.78-.38h0Zm-11.71,9.37c-.22,0-.44,.07-.62,.22l-3.91,3.13c-.42,.35-.49,.97-.15,1.4,.2,.25,.49,.38,.78,.38,.22,0,.44-.07,.62-.22l3.9-3.12c.43-.34,.5-.97,.16-1.41-.2-.25-.49-.38-.78-.38h0Zm-11.71,9.37c-.22,0-.44,.07-.62,.22,0,0-.87,.69-1.79,1.43l-2.13,1.7c-.42,.35-.49,.97-.15,1.4,.2,.25,.49,.38,.78,.38,.22,0,.44-.07,.62-.22l3.9-3.12c.43-.35,.5-.97,.16-1.41-.2-.25-.49-.38-.78-.38h0Zm-11.71,9.37c-.22,0-.44,.07-.62,.22,0,0-3.38,2.71-3.85,3.08h-.02v.02h-.02v.02h-.01s-.08,.07-.12,.11H3.2l2.09-1.67c.43-.35,.5-.97,.16-1.41-.2-.25-.49-.38-.78-.38h0Zm10.16,1.45h-5c-.55,0-1,.45-1,1s.45,1,1,1h5c.55,0,1-.45,1-1s-.45-1-1-1h0Zm15,0h-5c-.55,0-1,.45-1,1s.45,1,1,1h5c.55,0,1-.45,1-1s-.45-1-1-1h0Zm15,0h-5c-.55,0-1,.45-1,1s.45,1,1,1h5c.55,0,1-.45,1-1s-.45-1-1-1h0Zm15,0h-5c-.55,0-1,.45-1,1s.45,1,1,1h5c.55,0,1-.45,1-1s-.45-1-1-1h0Zm15,0h-5c-.55,0-1,.45-1,1s.45,1,1,1h5c.55,0,1-.45,1-1s-.45-1-1-1h0Zm15,0h-5c-.55,0-1,.45-1,1s.45,1,1,1h5c.55,0,1-.45,1-1s-.45-1-1-1h0Zm15,0h-5c-.55,0-1,.45-1,1s.45,1,1,1h5c.55,0,1-.45,1-1s-.45-1-1-1h0Zm15,0h-5c-.55,0-1,.45-1,1s.45,1,1,1h5c.55,0,1-.45,1-1s-.45-1-1-1h0Zm15,0h-5c-.55,0-1,.45-1,1s.45,1,1,1h5c.55,0,1-.45,1-1s-.45-1-1-1h0Zm15,0h-5c-.55,0-1,.45-1,1s.45,1,1,1h5c.55,0,1-.45,1-1s-.45-1-1-1h0Zm15,0h-5c-.55,0-1,.45-1,1s.45,1,1,1h5c.55,0,1-.45,1-1s-.45-1-1-1h0Zm15,0h-5c-.55,0-1,.45-1,1s.45,1,1,1h5c.55,0,1-.45,1-1s-.45-1-1-1h0Zm15,0h-5c-.55,0-1,.45-1,1s.45,1,1,1h5c.55,0,1-.45,1-1s-.45-1-1-1h0Zm15,0h-5c-.55,0-1,.45-1,1s.45,1,1,1h5c.55,0,1-.45,1-1s-.45-1-1-1h0Zm15,0h-5c-.55,0-1,.45-1,1s.45,1,1,1h5c.55,0,1-.45,1-1s-.45-1-1-1h0Zm15,0h-5c-.55,0-1,.45-1,1s.45,1,1,1h5c.55,0,1-.45,1-1s-.45-1-1-1h0Zm15,0h-5c-.55,0-1,.45-1,1s.45,1,1,1h5c.55,0,1-.45,1-1s-.45-1-1-1h0Zm15,0h-5c-.55,0-1,.45-1,1s.45,1,1,1h5c.55,0,1-.45,1-1s-.45-1-1-1h0Zm15,0h-5c-.55,0-1,.45-1,1s.45,1,1,1h5c.55,0,1-.45,1-1s-.45-1-1-1h0Zm15,0h-5c-.55,0-1,.45-1,1s.45,1,1,1h5c.55,0,1-.45,1-1s-.45-1-1-1h0Zm15,0h-5c-.55,0-1,.45-1,1s.45,1,1,1h5c.55,0,1-.45,1-1s-.45-1-1-1h0Zm15,0h-5c-.55,0-1,.45-1,1s.45,1,1,1h5c.55,0,1-.45,1-1s-.45-1-1-1h0Zm15,0h-5c-.55,0-1,.45-1,1s.45,1,1,1h5c.55,0,1-.45,1-1s-.45-1-1-1h0Zm15,0h-5c-.55,0-1,.45-1,1s.45,1,1,1h5c.55,0,1-.45,1-1s-.45-1-1-1h0Zm15,0h-5c-.55,0-1,.45-1,1s.45,1,1,1h5c.55,0,1-.45,1-1s-.45-1-1-1h0Zm15,0h-5c-.55,0-1,.45-1,1s.45,1,1,1h5c.55,0,1-.45,1-1s-.45-1-1-1h0Zm15,0h-5c-.55,0-1,.45-1,1s.45,1,1,1h5c.55,0,1-.45,1-1s-.45-1-1-1h0Zm15,0h-5c-.55,0-1,.45-1,1s.45,1,1,1h5c.55,0,1-.45,1-1s-.45-1-1-1h0Zm15,0h-5c-.55,0-1,.45-1,1s.45,1,1,1h5c.55,0,1-.45,1-1s-.45-1-1-1h0Zm15,0h-5c-.55,0-1,.45-1,1s.45,1,1,1h5c.55,0,1-.45,1-1s-.45-1-1-1h0Zm15,0h-5c-.55,0-1,.45-1,1s.45,1,1,1h5c.55,0,1-.45,1-1s-.45-1-1-1h0Zm15,0h-5c-.55,0-1,.45-1,1s.45,1,1,1h5c.55,0,1-.45,1-1s-.45-1-1-1h0Zm15,0h-5c-.55,0-1,.45-1,1s.45,1,1,1h5c.55,0,1-.45,1-1s-.45-1-1-1h0Zm15,0h-5c-.55,0-1,.45-1,1s.45,1,1,1h5c.55,0,1-.45,1-1s-.45-1-1-1h0Zm15,0h-5c-.55,0-1,.45-1,1s.45,1,1,1h5c.55,0,1-.45,1-1s-.45-1-1-1h0Zm15,0h-5c-.55,0-1,.45-1,1s.45,1,1,1h5c.55,0,1-.45,1-1s-.45-1-1-1h0Zm15,0h-5c-.55,0-1,.45-1,1s.45,1,1,1h5c.55,0,1-.45,1-1s-.45-1-1-1h0Zm15,0h-5c-.55,0-1,.45-1,1s.45,1,1,1h5c.55,0,1-.45,1-1s-.45-1-1-1h0Zm15,0h-5c-.55,0-1,.45-1,1s.45,1,1,1h5c.55,0,1-.45,1-1s-.45-1-1-1h0Zm15,0h-5c-.55,0-1,.45-1,1s.45,1,1,1h5c.55,0,1-.45,1-1s-.45-1-1-1h0Zm15,0h-5c-.55,0-1,.45-1,1s.45,1,1,1h5c.55,0,1-.45,1-1s-.45-1-1-1h0Zm15,0h-5c-.55,0-1,.45-1,1s.45,1,1,1h5c.55,0,1-.45,1-1s-.45-1-1-1h0Zm15,0h-5c-.55,0-1,.45-1,1s.45,1,1,1h5c.55,0,1-.45,1-1s-.45-1-1-1h0Zm15,0h-5c-.55,0-1,.45-1,1s.45,1,1,1h5c.55,0,1-.45,1-1s-.45-1-1-1h0Zm15,0h-5c-.55,0-1,.45-1,1s.45,1,1,1h5c.55,0,1-.45,1-1s-.45-1-1-1h0Zm15,0h-5c-.55,0-1,.45-1,1s.45,1,1,1h5c.55,0,1-.45,1-1s-.45-1-1-1h0Zm15,0h-5c-.55,0-1,.45-1,1s.45,1,1,1h5c.55,0,1-.45,1-1s-.45-1-1-1h0Zm15,0h-5c-.55,0-1,.45-1,1s.45,1,1,1h5c.55,0,1-.45,1-1s-.45-1-1-1h0Zm15,0h-5c-.55,0-1,.45-1,1s.45,1,1,1h5c.55,0,1-.45,1-1s-.45-1-1-1h0Zm15,0h-5c-.55,0-1,.45-1,1s.45,1,1,1h5c.55,0,1-.45,1-1s-.45-1-1-1h0Zm15,0h-5c-.55,0-1,.45-1,1s.45,1,1,1h5c.55,0,1-.45,1-1s-.45-1-1-1h0Zm15,0h-5c-.55,0-1,.45-1,1s.45,1,1,1h5c.55,0,1-.45,1-1s-.45-1-1-1h0Zm15,0h-5c-.55,0-1,.45-1,1s.45,1,1,1h5c.55,0,1-.45,1-1s-.45-1-1-1h0Zm15,0h-5c-.55,0-1,.45-1,1s.45,1,1,1h5c.55,0,1-.45,1-1s-.45-1-1-1h0Zm15,0h-5c-.55,0-1,.45-1,1s.45,1,1,1h5c.55,0,1-.45,1-1s-.45-1-1-1h0Zm15,0h-5c-.55,0-1,.45-1,1s.45,1,1,1h5c.55,0,1-.45,1-1s-.45-1-1-1h0Zm15,0h-5c-.55,0-1,.45-1,1s.45,1,1,1h5c.55,0,1-.45,1-1s-.45-1-1-1h0Zm15,0h-5c-.55,0-1,.45-1,1s.45,1,1,1h5c.55,0,1-.45,1-1s-.45-1-1-1h0Zm15,0h-5c-.55,0-1,.45-1,1s.45,1,1,1h5c.55,0,1-.45,1-1s-.45-1-1-1h0Zm15,0h-5c-.55,0-1,.45-1,1s.45,1,1,1h5c.55,0,1-.45,1-1s-.45-1-1-1h0Zm15,0h-5c-.55,0-1,.45-1,1s.45,1,1,1h5c.55,0,1-.45,1-1s-.45-1-1-1h0Zm15,0h-5c-.55,0-1,.45-1,1s.45,1,1,1h5c.55,0,1-.45,1-1s-.45-1-1-1h0Zm15,0h-5c-.55,0-1,.45-1,1s.45,1,1,1h5c.55,0,1-.45,1-1s-.45-1-1-1h0Zm15,0h-5c-.55,0-1,.45-1,1s.45,1,1,1h5c.55,0,1-.45,1-1s-.45-1-1-1h0Zm15,0h-5c-.55,0-1,.45-1,1s.45,1,1,1h5c.55,0,1-.45,1-1s-.45-1-1-1h0Zm15,0h-5c-.55,0-1,.45-1,1s.45,1,1,1h5c.55,0,1-.45,1-1s-.45-1-1-1h0Zm15,0h-5c-.55,0-1,.45-1,1s.45,1,1,1h5c.55,0,1-.45,1-1s-.45-1-1-1h0Zm15,0h-5c-.55,0-1,.45-1,1s.45,1,1,1h5c.55,0,1-.45,1-1s-.45-1-1-1h0Zm15,0h-5c-.55,0-1,.45-1,1s.45,1,1,1h5c.55,0,1-.45,1-1s-.45-1-1-1h0Zm15,0h-5c-.55,0-1,.45-1,1s.45,1,1,1h5c.55,0,1-.45,1-1s-.45-1-1-1h0Zm15,0h-5c-.55,0-1,.45-1,1s.45,1,1,1h5c.55,0,1-.45,1-1s-.45-1-1-1h0Zm15,0h-5c-.55,0-1,.45-1,1s.45,1,1,1h5c.55,0,1-.45,1-1s-.45-1-1-1h0Zm15,0h-5c-.55,0-1,.45-1,1s.45,1,1,1h5c.55,0,1-.45,1-1s-.45-1-1-1h0Zm15,0h-5c-.55,0-1,.45-1,1s.45,1,1,1h5c.55,0,1-.45,1-1s-.45-1-1-1h0Zm15,0h-5c-.55,0-1,.45-1,1s.45,1,1,1h5c.55,0,1-.45,1-1s-.45-1-1-1h0Zm15,0h-5c-.55,0-1,.45-1,1s.45,1,1,1h5c.55,0,1-.45,1-1s-.45-1-1-1h0Zm15,0h-5c-.55,0-1,.45-1,1s.45,1,1,1h5c.55,0,1-.45,1-1s-.45-1-1-1h0Zm15,0h-5c-.55,0-1,.45-1,1s.45,1,1,1h5c.55,0,1-.45,1-1s-.45-1-1-1h0Zm15,0h-5c-.55,0-1,.45-1,1s.45,1,1,1h5c.55,0,1-.45,1-1s-.45-1-1-1h0Zm4-1.86c-.29,0-.58,.13-.78,.38-.35,.43-.28,1.06,.16,1.41l2.6,2.08h2.9c-.05-.2-.17-.38-.34-.51l-1.69-1.35h0l-.02-.02-.04-.03h0c-1.04-.83-2.16-1.73-2.16-1.73-.18-.15-.4-.22-.62-.22h0Zm-11.71-9.37c-.29,0-.58,.13-.78,.38-.34,.43-.28,1.06,.16,1.41l3.9,3.12c.18,.15,.41,.22,.62,.22,.29,0,.58-.13,.78-.38,.34-.43,.28-1.06-.16-1.41l-3.9-3.12c-.18-.15-.4-.22-.62-.22h0Zm-11.71-9.37c-.29,0-.58,.13-.78,.38-.35,.43-.28,1.06,.16,1.41l3.9,3.12c.18,.15,.4,.22,.62,.22,.29,0,.58-.13,.78-.38,.35-.43,.28-1.06-.16-1.41,0,0-.87-.69-1.78-1.43l-2.13-1.7c-.18-.14-.4-.22-.62-.22h0Zm-11.71-9.37c-.29,0-.58,.13-.78,.38-.35,.43-.28,1.06,.16,1.41l3.9,3.12c.18,.15,.4,.22,.62,.22,.29,0,.58-.13,.78-.38,.35-.43,.28-1.06-.16-1.41,0,0-1.67-1.34-2.83-2.26l-1.08-.86c-.18-.15-.4-.22-.62-.22h0Zm-11.71-9.37c-.29,0-.58,.13-.78,.38-.34,.43-.28,1.06,.16,1.41l3.9,3.12c.18,.15,.4,.22,.62,.22,.29,0,.58-.13,.78-.38,.34-.43,.28-1.06-.15-1.4l-3.91-3.13c-.18-.15-.4-.22-.62-.22h0Z"/></svg>